<?xml version="1.0" encoding="iso-8859-1"?>
<!-- Uploaded to: SVG Repo, www.svgrepo.com, Generator: SVG Repo Mixer Tools -->
<svg height="800px" width="800px" version="1.1" id="Layer_1" xmlns="http://www.w3.org/2000/svg" xmlns:xlink="http://www.w3.org/1999/xlink" 
	 viewBox="0 0 512 512" xml:space="preserve">
<g>
	<path style="fill:#D9F4F9;" d="M327.307,0c-15.08,30.345-39.09,59.311-71.307,82.744C223.784,59.311,199.773,30.345,184.694,0
		H327.307z"/>
	<path style="fill:#D9F4F9;" d="M256,168.808c-3.431,0-6.212-2.781-6.212-6.212V57.045c0-3.431,2.781-6.212,6.212-6.212
		c3.431,0,6.212,2.781,6.212,6.212v105.552C262.212,166.028,259.431,168.808,256,168.808z"/>
</g>
<path style="fill:#E8BB51;" d="M309.808,28.981c-12.157,16.956-27.272,32.972-45.213,47.227c-5.03,3.996-12.159,3.996-17.188,0
	c-17.943-14.255-33.067-30.271-45.213-47.227H309.808z"/>
<g>
	<path style="fill:#D9F4F9;" d="M282.084,171.067h-52.168l0,0c0-9.357,7.586-16.942,16.942-16.942h18.284
		C274.5,154.125,282.084,161.711,282.084,171.067L282.084,171.067z"/>
	<path style="fill:#D9F4F9;" d="M256,170.466c-15.08,30.345-39.09,59.311-71.307,82.744c-32.217-23.433-56.228-52.401-71.307-82.744
		H256z"/>
	<path style="fill:#D9F4F9;" d="M184.694,339.275c-3.431,0-6.212-2.781-6.212-6.212V227.511c0-3.431,2.781-6.212,6.212-6.212
		c3.431,0,6.212,2.781,6.212,6.212v105.552C190.906,336.494,188.124,339.275,184.694,339.275z"/>
</g>
<path style="fill:#E8BB51;" d="M238.501,199.448c-12.157,16.956-27.272,32.972-45.213,47.227c-5.03,3.996-12.159,3.996-17.188,0
	c-17.943-14.255-33.067-30.271-45.213-47.227H238.501z"/>
<g>
	<path style="fill:#D9F4F9;" d="M210.778,341.534H158.61l0,0c0-9.357,7.586-16.942,16.942-16.942h18.284
		C203.192,324.591,210.778,332.177,210.778,341.534L210.778,341.534z"/>
	<path style="fill:#D9F4F9;" d="M398.615,170.466c-15.08,30.345-39.09,59.311-71.307,82.744
		C295.09,229.777,271.081,200.81,256,170.466H398.615z"/>
	<path style="fill:#D9F4F9;" d="M327.307,339.275c-3.431,0-6.212-2.781-6.212-6.212V227.511c0-3.431,2.781-6.212,6.212-6.212
		s6.212,2.781,6.212,6.212v105.552C333.519,336.494,330.738,339.275,327.307,339.275z"/>
</g>
<path style="fill:#E8BB51;" d="M381.114,199.448c-12.157,16.956-27.272,32.972-45.213,47.227c-5.03,3.996-12.159,3.996-17.188,0
	c-17.943-14.255-33.067-30.271-45.213-47.227H381.114z"/>
<g>
	<path style="fill:#D9F4F9;" d="M353.391,341.534h-52.168l0,0c0-9.357,7.586-16.942,16.942-16.942h18.284
		C345.806,324.591,353.391,332.177,353.391,341.534L353.391,341.534z"/>
	<path style="fill:#D9F4F9;" d="M184.694,340.932c-15.08,30.345-39.09,59.311-71.307,82.744
		c-32.217-23.433-56.227-52.401-71.307-82.744H184.694z"/>
	<path style="fill:#D9F4F9;" d="M113.387,509.741c-3.431,0-6.212-2.781-6.212-6.212V397.977c0-3.431,2.781-6.212,6.212-6.212
		c3.431,0,6.212,2.781,6.212,6.212v105.552C119.599,506.959,116.818,509.741,113.387,509.741z"/>
</g>
<path style="fill:#E8BB51;" d="M167.194,369.914c-12.157,16.956-27.272,32.972-45.213,47.227c-5.03,3.996-12.159,3.996-17.188,0
	c-17.943-14.255-33.067-30.271-45.213-47.227H167.194z"/>
<g>
	<path style="fill:#D9F4F9;" d="M139.471,512H87.302l0,0c0-9.357,7.586-16.942,16.942-16.942h18.284
		C131.886,495.058,139.471,502.643,139.471,512L139.471,512z"/>
	<path style="fill:#D9F4F9;" d="M469.921,340.932c-15.08,30.345-39.09,59.311-71.307,82.744
		c-32.217-23.433-56.227-52.401-71.307-82.744H469.921z"/>
	<path style="fill:#D9F4F9;" d="M398.613,509.741c-3.431,0-6.212-2.781-6.212-6.212V397.977c0-3.431,2.781-6.212,6.212-6.212
		s6.212,2.781,6.212,6.212v105.552C404.826,506.959,402.045,509.741,398.613,509.741z"/>
</g>
<path style="fill:#E8BB51;" d="M452.422,369.914c-12.157,16.956-27.272,32.972-45.213,47.227c-5.03,3.996-12.159,3.996-17.188,0
	c-17.943-14.255-33.067-30.271-45.213-47.227H452.422z"/>
<g>
	<path style="fill:#D9F4F9;" d="M424.699,512H372.53l0,0c0-9.357,7.586-16.942,16.942-16.942h18.284
		C417.113,495.058,424.699,502.643,424.699,512L424.699,512z"/>
	<path style="fill:#D9F4F9;" d="M327.307,340.932c-15.08,30.345-39.09,59.311-71.307,82.744
		c-32.217-23.433-56.227-52.401-71.307-82.744H327.307z"/>
	<path style="fill:#D9F4F9;" d="M256,509.741c-3.431,0-6.212-2.781-6.212-6.212V397.977c0-3.431,2.781-6.212,6.212-6.212
		c3.431,0,6.212,2.781,6.212,6.212v105.552C262.212,506.959,259.431,509.741,256,509.741z"/>
</g>
<path style="fill:#E8BB51;" d="M309.808,369.914c-12.157,16.956-27.272,32.972-45.213,47.227c-5.03,3.996-12.159,3.996-17.188,0
	c-17.943-14.255-33.067-30.271-45.213-47.227H309.808z"/>
<path style="fill:#D9F4F9;" d="M282.084,512h-52.168l0,0c0-9.357,7.586-16.942,16.942-16.942h18.284
	C274.5,495.058,282.084,502.643,282.084,512L282.084,512z"/>
</svg>