<?xml version="1.0" encoding="iso-8859-1"?>
<!-- Uploaded to: SVG Repo, www.svgrepo.com, Generator: SVG Repo Mixer Tools -->
<svg height="800px" width="800px" version="1.1" id="Layer_1" xmlns="http://www.w3.org/2000/svg" xmlns:xlink="http://www.w3.org/1999/xlink" 
	 viewBox="0 0 511.986 511.986" xml:space="preserve">
<path style="fill:#A0D468;" d="M381.368,113.45l36.093-84.575L349.806,0l-36.093,84.576l-78.38,66.537l-72.186,169.145
	c-3.984,9.344,0.359,20.155,9.703,24.14l118.395,50.53c9.344,3.984,20.156-0.359,24.156-9.703l72.154-169.151L381.368,113.45z"/>
<path style="fill:#434A54;" d="M372.055,114.38c-9.812,1.352-19.718-0.062-29.468-4.219c-19.124-8.155-26.405-22.257-28.343-26.835
	l-0.531,1.25l-15.875,13.469c5.375,9.32,16.219,23.132,36.375,31.733c11.312,4.828,21.78,6.406,30.623,6.406
	c7.094,0,13.156-1.008,17.781-2.18l-1.25-20.555l0.656-1.578C380.462,112.489,376.931,113.708,372.055,114.38z"/>
<polygon style="fill:#8CC153;" points="417.461,28.875 349.806,0 336.651,30.742 404.399,59.429 "/>
<g style="opacity:0.2;">
	<path style="fill:#FFFFFF;" d="M194.178,344.397c-9.343-3.984-13.671-14.796-9.687-24.14l72.17-169.145l78.365-66.537
		l32.811-76.872L349.807,0l-36.093,84.576l-78.381,66.537l-72.186,169.145c-3.984,9.344,0.359,20.155,9.703,24.14l118.395,50.53
		c5.938,2.531,12.469,1.688,17.469-1.656L194.178,344.397z"/>
</g>
<g>
	<path style="fill:#AAB2BC;" d="M426.648,234.431c-29.437,0-53.312,14.32-53.312,31.991c0,17.68,23.875,32.007,53.312,32.007
		c29.468,0,53.343-14.327,53.343-32.007C479.991,248.752,456.116,234.431,426.648,234.431z M451.022,272.055
		c-6.625,3.25-15.281,5.031-24.374,5.031c-9.094,0-17.718-1.781-24.343-5.031c-4.688-2.305-6.781-4.609-7.469-5.633
		c0.688-1.023,2.781-3.319,7.469-5.616c6.625-3.258,15.249-5.047,24.343-5.047c9.093,0,17.749,1.789,24.374,5.047
		c4.688,2.297,6.781,4.593,7.469,5.616C457.804,267.446,455.71,269.751,451.022,272.055z"/>
	<path style="fill:#AAB2BC;" d="M85.337,234.431c-29.452,0-53.342,14.32-53.342,31.991c0,17.68,23.89,32.007,53.342,32.007
		c29.453,0,53.327-14.327,53.327-32.007C138.664,248.752,114.79,234.431,85.337,234.431z M109.696,272.055
		c-6.625,3.25-15.266,5.031-24.359,5.031s-17.749-1.781-24.358-5.031c-4.688-2.305-6.781-4.609-7.469-5.633
		c0.688-1.023,2.781-3.319,7.469-5.616c6.609-3.258,15.266-5.047,24.358-5.047c9.094,0,17.734,1.789,24.359,5.047
		c4.688,2.297,6.781,4.593,7.453,5.616C116.477,267.446,114.384,269.751,109.696,272.055z"/>
</g>
<g>
	<polygon style="fill:#E6E9ED;" points="434.147,173.98 385.712,215.8 343.9,167.355 392.337,125.536 	"/>
	<polygon style="fill:#E6E9ED;" points="146.32,214.378 86.618,191.323 109.681,131.622 169.382,154.683 	"/>
	<polygon style="fill:#E6E9ED;" points="243.161,169.847 194.709,211.667 152.898,163.222 201.334,121.403 	"/>
</g>
<polygon style="fill:#CCD1D9;" points="394.649,511.986 117.337,511.986 74.666,170.668 437.335,170.668 "/>
<g>
	<path style="fill:#AAB2BC;" d="M351.994,298.664H160.007l0,0l0,0c-5.905,0-10.671,4.766-10.671,10.672
		c0,5.875,4.766,10.656,10.671,10.656l0,0l0,0h191.987c5.905,0,10.655-4.781,10.655-10.656
		C362.649,303.43,357.899,298.664,351.994,298.664z"/>
	<path style="fill:#AAB2BC;" d="M341.338,383.99H170.663c-5.891,0-10.656,4.781-10.656,10.672s4.766,10.672,10.656,10.672h170.675
		c5.875,0,10.656-4.781,10.656-10.672S347.213,383.99,341.338,383.99z"/>
	<polygon style="fill:#AAB2BC;" points="78.666,202.667 433.335,202.667 437.335,170.668 74.666,170.668 	"/>
</g>
</svg>