<svg width="589.5" height="100" viewBox="0 0 589.5 100" xmlns="http://www.w3.org/2000/svg"><g id="svgGroup" stroke-linecap="round" fill-rule="evenodd" font-size="9pt" stroke="#ebbb10" stroke-width="0.25mm" fill="#e8b91f" style="stroke:#ebbb10;stroke-width:0.25mm;fill:#e8b91f"><path d="M 554.1 55.7 L 555.1 56.7 Q 553.7 61.6 550.8 65.95 A 33.076 33.076 0 0 1 547.434 70.229 A 26.302 26.302 0 0 1 544.35 73.05 A 15.336 15.336 0 0 1 541.75 74.699 Q 539.515 75.8 537.3 75.8 Q 534.5 75.8 532.5 73.9 A 12.541 12.541 0 0 1 530.064 70.652 A 15.513 15.513 0 0 1 529.35 69.1 Q 528.2 66.2 527.65 63.15 A 39.77 39.77 0 0 1 527.294 60.796 Q 527.1 59.166 527.1 57.8 Q 528.2 57.8 530.3 57.25 Q 532.4 56.7 534.6 55.55 Q 536.8 54.4 538.35 52.55 Q 539.9 50.7 539.9 48.2 A 4.716 4.716 0 0 0 539.676 46.71 A 3.819 3.819 0 0 0 538.4 44.9 Q 536.9 43.7 534.9 43.7 A 8.836 8.836 0 0 0 530.04 45.174 A 11.463 11.463 0 0 0 529.1 45.85 A 19.788 19.788 0 0 0 526.014 48.953 A 25.549 25.549 0 0 0 524.25 51.45 Q 522.1 54.9 520.4 58.8 A 107.147 107.147 0 0 0 518.514 63.405 A 86.823 86.823 0 0 0 517.5 66.2 Q 516.36 69.526 515.581 71.768 A 755.136 755.136 0 0 1 515.5 72 A 6.857 6.857 0 0 1 515.088 72.99 Q 514.565 73.998 513.8 74.45 A 4.601 4.601 0 0 1 512.24 75.037 A 4.315 4.315 0 0 1 511.5 75.1 A 3.213 3.213 0 0 1 510.487 74.949 Q 509.583 74.65 509.082 73.758 A 3.315 3.315 0 0 1 509.05 73.7 Q 508.3 72.3 508.15 70.15 A 63.192 63.192 0 0 1 508.002 66.273 A 69.681 69.681 0 0 1 508 65.7 A 38.862 38.862 0 0 1 508.32 60.89 Q 508.626 58.438 509.227 55.71 A 73.103 73.103 0 0 1 509.7 53.7 A 111.61 111.61 0 0 1 512.274 44.985 A 133.177 133.177 0 0 1 514.25 39.55 Q 517.1 32.2 520.5 25.3 Q 523.9 18.4 527.3 12.8 A 92.724 92.724 0 0 1 529.679 9.072 Q 530.84 7.352 531.935 5.93 A 40.92 40.92 0 0 1 533.6 3.9 Q 536.368 0.751 538.133 0.607 A 2.053 2.053 0 0 1 538.3 0.6 Q 539.47 0.6 540.255 1.926 A 5.662 5.662 0 0 1 540.55 2.5 Q 541.319 4.219 541.392 6.593 A 16.443 16.443 0 0 1 541.4 7.1 Q 541.4 10.5 539.9 14.75 A 39.161 39.161 0 0 1 537.32 20.484 A 47.444 47.444 0 0 1 535.65 23.3 Q 532.9 27.6 529.15 31.4 Q 525.4 35.2 521 37.9 Q 517.7 46 516.05 53.65 A 92.741 92.741 0 0 0 515.111 58.62 Q 514.722 61.063 514.546 63.191 A 40.246 40.246 0 0 0 514.4 66.5 Q 516 62.5 518.25 57.7 Q 520.5 52.9 523.4 48.5 Q 526.3 44.1 529.7 41.3 Q 533.1 38.5 536.8 38.5 A 8.571 8.571 0 0 1 543.018 41.019 A 10.267 10.267 0 0 1 543.1 41.1 A 8.568 8.568 0 0 1 545.699 47.285 A 10.458 10.458 0 0 1 545.7 47.4 A 10.347 10.347 0 0 1 545.361 50.105 A 8.221 8.221 0 0 1 544.05 52.85 Q 542.4 55.1 540.05 56.45 A 21.422 21.422 0 0 1 536.892 57.948 A 18.359 18.359 0 0 1 535.35 58.45 Q 533 59.1 531.5 59.1 Q 531.582 59.758 531.935 61.295 A 89.051 89.051 0 0 0 532.1 62 A 27.137 27.137 0 0 0 532.895 64.686 A 33.617 33.617 0 0 0 533.55 66.4 A 16.237 16.237 0 0 0 534.761 68.782 A 13.167 13.167 0 0 0 535.9 70.35 A 4.959 4.959 0 0 0 537.137 71.418 A 4.146 4.146 0 0 0 539.3 72 A 7.8 7.8 0 0 0 543.314 70.863 A 10.765 10.765 0 0 0 544.8 69.8 A 21.611 21.611 0 0 0 547.26 67.329 Q 548.538 65.832 549.75 63.95 A 53.189 53.189 0 0 0 552.517 59.083 A 66.128 66.128 0 0 0 554.1 55.7 Z M 404 55.8 L 405.2 56.7 Q 403.3 61.8 400 65.85 A 33.02 33.02 0 0 1 396.422 69.624 A 25.676 25.676 0 0 1 392.95 72.25 A 17.904 17.904 0 0 1 390.187 73.682 Q 387.925 74.6 385.8 74.6 A 8.692 8.692 0 0 1 383.897 74.406 Q 382.726 74.143 381.882 73.523 A 4.574 4.574 0 0 1 380.65 72.15 A 10.455 10.455 0 0 1 379.449 69.227 A 9.21 9.21 0 0 1 379.2 67.1 A 15.445 15.445 0 0 1 379.249 65.93 Q 379.349 64.618 379.655 62.853 A 52.643 52.643 0 0 1 379.7 62.6 Q 380.2 59.8 381.1 56.4 A 77.331 77.331 0 0 1 376.511 63.191 A 66.067 66.067 0 0 1 374.3 65.95 Q 371.268 69.53 368.342 71.797 A 26.353 26.353 0 0 1 367.25 72.6 A 16.321 16.321 0 0 1 364.919 73.966 Q 363.554 74.612 362.247 74.855 A 8.474 8.474 0 0 1 360.7 75 A 7.361 7.361 0 0 1 358.339 74.598 A 9.263 9.263 0 0 1 357.25 74.15 A 6.565 6.565 0 0 1 354.983 72.31 A 8.468 8.468 0 0 1 354.35 71.4 Q 353.326 69.708 353.214 67.222 A 13.825 13.825 0 0 1 353.2 66.6 A 16.265 16.265 0 0 1 353.529 63.445 Q 353.826 61.943 354.392 60.306 A 30.352 30.352 0 0 1 354.8 59.2 A 41.09 41.09 0 0 1 357.8 53.11 A 48.097 48.097 0 0 1 359.1 51.05 Q 361.8 47 365.3 43.55 A 35.024 35.024 0 0 1 369.562 39.947 A 28.885 28.885 0 0 1 372.6 38.05 A 17.989 17.989 0 0 1 376.258 36.545 A 14.115 14.115 0 0 1 380.1 36 Q 382.2 36 383.35 36.75 A 2.452 2.452 0 0 1 384.458 38.519 A 3.84 3.84 0 0 1 384.5 39.1 A 5.414 5.414 0 0 1 384.491 39.429 Q 384.481 39.58 384.463 39.713 A 2.995 2.995 0 0 1 384.45 39.8 Q 384.4 40.1 384.3 40.5 A 2.757 2.757 0 0 0 382.981 39.401 A 3.453 3.453 0 0 0 382.85 39.35 Q 382.076 39.065 381.003 39.012 A 10.238 10.238 0 0 0 380.5 39 Q 377.3 39 374.25 40.95 A 22.456 22.456 0 0 0 370.124 44.373 A 26.99 26.99 0 0 0 368.65 46.05 Q 366.1 49.2 364.2 52.8 A 45.934 45.934 0 0 0 362.331 56.771 A 36.774 36.774 0 0 0 361.25 59.75 A 29.379 29.379 0 0 0 360.652 61.929 Q 360.2 63.891 360.2 65.4 A 7.868 7.868 0 0 0 360.318 66.806 Q 360.544 68.047 361.2 68.9 Q 362.196 70.194 363.786 70.2 A 3.928 3.928 0 0 0 363.8 70.2 A 5.577 5.577 0 0 0 365.696 69.834 Q 367.763 69.084 370.35 66.8 A 32.998 32.998 0 0 0 373.381 63.717 Q 375.762 60.978 378.2 57.2 A 69.921 69.921 0 0 0 382.336 49.791 A 92.7 92.7 0 0 0 385.4 42.7 Q 387.6 36.9 389.95 30.9 A 362.956 362.956 0 0 1 394.101 20.745 A 329.715 329.715 0 0 1 394.7 19.35 Q 397.1 13.8 399.35 9.45 Q 400.969 6.319 402.485 4.121 A 26.687 26.687 0 0 1 403.65 2.55 A 13.346 13.346 0 0 1 404.586 1.495 Q 406.075 0 407.3 0 A 1.801 1.801 0 0 1 408.547 0.498 A 2.481 2.481 0 0 1 408.7 0.65 A 2.24 2.24 0 0 1 409.278 1.934 A 3.03 3.03 0 0 1 409.3 2.3 Q 409.3 3.784 407.881 7.204 A 51.833 51.833 0 0 1 407.65 7.75 Q 406.516 10.397 404.909 13.753 A 267.949 267.949 0 0 1 403.35 16.95 Q 400.7 22.3 397.8 28.6 Q 394.9 34.9 392.25 41.4 A 117.204 117.204 0 0 0 389.328 49.349 A 98.956 98.956 0 0 0 387.95 53.95 A 51.358 51.358 0 0 0 386.822 59.043 Q 386.365 61.794 386.308 64.292 A 30.986 30.986 0 0 0 386.3 65 A 41.959 41.959 0 0 0 386.324 66.464 Q 386.37 67.788 386.507 68.689 A 8.73 8.73 0 0 0 386.6 69.2 Q 386.9 70.6 388.6 70.6 Q 390.075 70.6 391.894 69.713 A 15.765 15.765 0 0 0 393.5 68.8 Q 396.021 67.179 398.542 64.343 A 37.102 37.102 0 0 0 399.1 63.7 A 30.908 30.908 0 0 0 402.253 59.195 A 39.266 39.266 0 0 0 404 55.8 Z M 219 55.8 L 220.3 56.8 Q 218.8 61.3 215.5 65 A 44.297 44.297 0 0 1 209.611 70.532 A 40.211 40.211 0 0 1 208.45 71.4 A 60.893 60.893 0 0 1 205.51 73.396 Q 203.441 74.709 201.6 75.6 A 129.454 129.454 0 0 1 197.983 83.526 A 105.975 105.975 0 0 1 195.7 87.85 A 52.075 52.075 0 0 1 193.34 91.696 Q 191.999 93.672 190.614 95.252 A 27.278 27.278 0 0 1 189.25 96.7 Q 185.9 100 182.1 100 Q 179.9 100 178.1 98.65 A 4.195 4.195 0 0 1 176.632 96.541 Q 176.393 95.816 176.326 94.924 A 9.642 9.642 0 0 1 176.3 94.2 Q 176.3 91.2 178.15 88.65 A 20.434 20.434 0 0 1 181.03 85.475 A 25.312 25.312 0 0 1 182.9 83.95 A 46.795 46.795 0 0 1 188.185 80.571 A 52.595 52.595 0 0 1 189.25 80 Q 192.7 78.2 195.8 76.6 A 92.534 92.534 0 0 0 197.491 72.01 A 110.269 110.269 0 0 0 198.45 69.05 Q 199.7 65 200.9 60.1 Q 197.1 65.6 192.95 69.25 A 17.752 17.752 0 0 1 190.093 71.327 Q 188.234 72.396 186.364 72.739 A 9.771 9.771 0 0 1 184.6 72.9 A 7.637 7.637 0 0 1 182.133 72.521 A 6.201 6.201 0 0 1 179.05 70.2 Q 177.238 67.691 177.11 63.801 A 18.232 18.232 0 0 1 177.1 63.2 Q 177.1 58 179.65 53.3 Q 182.2 48.6 186.3 45 A 35.458 35.458 0 0 1 192.731 40.472 A 31.822 31.822 0 0 1 195 39.35 Q 199.356 37.409 203.174 37.306 A 15.802 15.802 0 0 1 203.6 37.3 Q 206.063 37.3 207.336 37.985 A 3.153 3.153 0 0 1 207.75 38.25 A 3.773 3.773 0 0 1 208.436 38.911 A 2.504 2.504 0 0 1 209 40.5 Q 209 41.261 208.643 41.735 A 1.548 1.548 0 0 1 208.5 41.9 Q 208.066 42.334 207.858 42.467 A 0.649 0.649 0 0 1 207.8 42.5 Q 207.3 41.7 206.3 41.35 A 5.592 5.592 0 0 0 205.405 41.123 Q 204.959 41.046 204.443 41.017 A 11.489 11.489 0 0 0 203.8 41 Q 199.9 41 196.25 43.3 A 25.034 25.034 0 0 0 189.976 48.976 A 28.172 28.172 0 0 0 189.8 49.2 Q 187 52.8 185.35 56.65 A 23.238 23.238 0 0 0 184.282 59.671 Q 183.836 61.301 183.732 62.797 A 12.973 12.973 0 0 0 183.7 63.7 A 9.72 9.72 0 0 0 183.788 65.056 Q 183.886 65.746 184.091 66.306 A 3.972 3.972 0 0 0 184.65 67.35 Q 185.571 68.562 187.102 68.599 A 4.021 4.021 0 0 0 187.2 68.6 A 5.688 5.688 0 0 0 189.278 68.166 Q 190.975 67.498 192.977 65.804 A 27.149 27.149 0 0 0 194.15 64.75 A 52.859 52.859 0 0 0 198.597 59.934 A 69.283 69.283 0 0 0 202 55.4 A 251.7 251.7 0 0 1 202.27 54.153 Q 202.417 53.484 202.55 52.9 Q 202.788 51.855 203.161 50.268 A 691.699 691.699 0 0 1 203.2 50.1 A 7.107 7.107 0 0 1 203.543 48.99 Q 203.761 48.438 204.084 47.83 A 16.7 16.7 0 0 1 204.65 46.85 Q 205.8 45 208.3 45 Q 208.8 45 209.3 45.05 Q 209.768 45.097 210.324 45.275 A 7.074 7.074 0 0 1 210.4 45.3 Q 210.4 46.9 209.45 51.15 Q 208.5 55.4 206.75 61.05 Q 205 66.7 202.7 72.7 A 33.657 33.657 0 0 0 207.566 69.794 A 38.916 38.916 0 0 0 209.15 68.6 Q 212.3 66.1 214.9 62.85 Q 217.5 59.6 219 55.8 Z M 68.9 55.8 L 69.9 56.8 A 37.287 37.287 0 0 1 66.445 63.611 A 32.548 32.548 0 0 1 64.5 66.3 Q 61.2 70.4 57.45 72.7 A 17.14 17.14 0 0 1 54.313 74.231 A 12.358 12.358 0 0 1 50.1 75 A 9.836 9.836 0 0 1 48.026 74.796 Q 46.748 74.52 45.8 73.872 A 5.25 5.25 0 0 1 44.65 72.8 A 8.161 8.161 0 0 1 43.297 70.387 A 7.247 7.247 0 0 1 42.9 68 A 8.603 8.603 0 0 1 42.923 67.384 Q 42.948 67.037 43 66.65 Q 43.1 65.9 43.2 65.1 Q 40.381 68.902 37.884 71.458 A 30.925 30.925 0 0 1 35.35 73.8 A 14.686 14.686 0 0 1 32.666 75.567 Q 30.412 76.7 28.1 76.7 Q 25 76.7 22.85 74.65 A 6.384 6.384 0 0 1 21.221 72.014 Q 20.879 70.999 20.762 69.76 A 14.414 14.414 0 0 1 20.7 68.4 A 18.649 18.649 0 0 1 21.152 64.42 Q 21.544 62.624 22.277 60.711 A 30.579 30.579 0 0 1 22.3 60.65 A 37.798 37.798 0 0 1 25.355 54.513 A 44.377 44.377 0 0 1 26.7 52.45 Q 29.5 48.4 33.05 45.05 A 33.55 33.55 0 0 1 38.12 41.082 A 29.188 29.188 0 0 1 40.55 39.7 A 19.076 19.076 0 0 1 44.733 38.139 A 15.733 15.733 0 0 1 48.4 37.7 A 12.227 12.227 0 0 1 51.446 38.061 A 9.203 9.203 0 0 1 54.9 39.75 A 6.51 6.51 0 0 1 57.469 44.472 A 8.351 8.351 0 0 1 57.5 45.2 A 7.213 7.213 0 0 1 57.41 46.383 Q 57.152 47.932 56.15 48.6 Q 54.996 49.369 53.22 49.481 A 9.891 9.891 0 0 1 52.6 49.5 A 18.324 18.324 0 0 0 52.809 48.553 A 23.066 23.066 0 0 0 52.95 47.75 Q 53.1 46.8 53.1 46 A 8.048 8.048 0 0 0 52.866 44.018 A 6.315 6.315 0 0 0 52 42.05 A 3.459 3.459 0 0 0 50.13 40.672 Q 49.297 40.4 48.2 40.4 A 8.865 8.865 0 0 0 44.929 41.052 Q 43.799 41.498 42.653 42.249 A 15.426 15.426 0 0 0 42.5 42.35 A 23.691 23.691 0 0 0 39.344 44.913 A 31.64 31.64 0 0 0 36.9 47.55 Q 34.2 50.8 32.1 54.6 A 45.316 45.316 0 0 0 29.684 59.661 A 38.5 38.5 0 0 0 28.8 62.1 A 28.274 28.274 0 0 0 28.023 64.974 Q 27.719 66.415 27.633 67.709 A 15.035 15.035 0 0 0 27.6 68.7 Q 27.6 72.493 30.154 72.597 A 3.589 3.589 0 0 0 30.3 72.6 Q 32.6 72.6 35.3 70.45 A 33.59 33.59 0 0 0 37.864 68.171 Q 39.14 66.921 40.449 65.417 A 56.926 56.926 0 0 0 40.85 64.95 Q 43.7 61.6 46.3 58 Q 48.9 54.4 50.9 51.4 A 9.739 9.739 0 0 1 51.029 51.211 Q 51.266 50.873 51.364 50.813 A 0.072 0.072 0 0 1 51.4 50.8 A 6.992 6.992 0 0 1 51.809 50.882 Q 52.264 50.986 52.864 51.173 A 22.651 22.651 0 0 1 52.95 51.2 A 6.466 6.466 0 0 1 53.933 51.598 A 5.186 5.186 0 0 1 54.6 52 A 1.808 1.808 0 0 1 55.027 52.417 A 1.48 1.48 0 0 1 55.3 53.3 A 2.51 2.51 0 0 1 55.221 53.892 Q 55.076 54.485 54.666 55.269 A 12.368 12.368 0 0 1 54.4 55.75 A 145.901 145.901 0 0 0 53.512 57.302 Q 52.984 58.238 52.4 59.3 Q 51.3 61.3 50.4 63.35 Q 49.532 65.328 49.501 67.073 A 7.254 7.254 0 0 0 49.5 67.2 A 5.859 5.859 0 0 0 50.028 69.604 A 7.159 7.159 0 0 0 50.3 70.15 A 2.722 2.722 0 0 0 51.27 71.191 Q 51.786 71.504 52.467 71.578 A 4.039 4.039 0 0 0 52.9 71.6 A 5.135 5.135 0 0 0 54.653 71.252 Q 56.906 70.427 60 67.65 A 31.332 31.332 0 0 0 63.245 64.217 Q 64.78 62.348 66.328 60.006 A 74.771 74.771 0 0 0 68.9 55.8 Z M 219 41.8 L 219 40 Q 219.8 40.1 220.9 40.2 Q 221.927 40.293 223.215 40.387 A 180.465 180.465 0 0 0 223.4 40.4 Q 225.5 35 227.9 29.95 Q 230.3 24.9 232.65 20.95 Q 234.426 17.964 236.088 15.893 A 25.255 25.255 0 0 1 237.15 14.65 A 14.304 14.304 0 0 1 238.122 13.678 Q 239.652 12.3 240.8 12.3 A 2.174 2.174 0 0 1 242.189 12.8 A 2.751 2.751 0 0 1 242.25 12.85 A 1.752 1.752 0 0 1 242.808 13.751 Q 242.9 14.087 242.9 14.5 A 4.378 4.378 0 0 1 242.769 15.484 Q 242.413 17 241.093 19.503 A 43.938 43.938 0 0 1 240.8 20.05 Q 239.356 22.697 237.44 26.029 A 501.112 501.112 0 0 1 235.6 29.2 A 134.642 134.642 0 0 0 231.432 36.913 A 158.425 158.425 0 0 0 229.6 40.7 L 231.45 40.7 L 233.3 40.7 Q 236.6 40.7 240.25 40.6 Q 243.9 40.5 247.6 40.1 L 247.6 41.9 A 302.508 302.508 0 0 1 242.696 42.397 Q 240.39 42.61 238.333 42.759 A 177.381 177.381 0 0 1 237.75 42.8 Q 233.4 43.1 230 43.1 L 229.25 43.1 L 228.5 43.1 Q 226.2 48.4 224.6 54 A 41.313 41.313 0 0 0 223.141 61.727 A 36.128 36.128 0 0 0 223 64.9 A 22.505 22.505 0 0 0 223.092 67.012 Q 223.29 69.109 223.918 70.397 A 4.765 4.765 0 0 0 224.3 71.05 Q 225.6 72.9 228.6 72.9 A 12.647 12.647 0 0 0 234.387 71.445 Q 236.195 70.525 237.978 69.024 A 24.857 24.857 0 0 0 238.8 68.3 A 33.464 33.464 0 0 0 243.362 63.07 Q 245.641 59.873 247.6 55.8 L 248.9 56.8 Q 246.5 62.4 242.85 66.9 A 32.78 32.78 0 0 1 238.315 71.521 A 27.222 27.222 0 0 1 234.8 74 A 18.697 18.697 0 0 1 229.362 76.195 A 16.71 16.71 0 0 1 225.7 76.6 A 11.866 11.866 0 0 1 223.093 76.331 Q 220.645 75.78 219.1 74.1 A 7.904 7.904 0 0 1 217.449 71.229 Q 216.8 69.303 216.8 66.7 Q 216.8 63.518 217.663 59.264 A 69.769 69.769 0 0 1 218.45 55.85 Q 220.1 49.4 222.6 42.6 Q 221.6 42.4 220.7 42.25 Q 219.8 42.1 219 41.8 Z M 180.2 55.8 L 181.3 57.1 A 56.018 56.018 0 0 1 178.779 62.264 A 44.946 44.946 0 0 1 176.6 65.8 A 27.462 27.462 0 0 1 173.964 69.106 A 20.479 20.479 0 0 1 170.9 71.8 Q 167.8 74 164 74 Q 161.606 74 160.031 73.158 A 5.175 5.175 0 0 1 158.75 72.2 A 6.116 6.116 0 0 1 157.043 68.451 A 8.266 8.266 0 0 1 157 67.6 Q 157 65.5 157.75 63.2 Q 158.5 60.9 159.2 58.45 A 18.17 18.17 0 0 0 159.825 55.226 A 15.671 15.671 0 0 0 159.9 53.7 Q 159.9 50.9 158.75 49.85 A 3.986 3.986 0 0 0 156.265 48.813 A 5.228 5.228 0 0 0 155.9 48.8 A 8.365 8.365 0 0 0 152.578 49.52 Q 151.423 50.016 150.255 50.854 A 16.284 16.284 0 0 0 149.6 51.35 A 31.759 31.759 0 0 0 146.256 54.454 A 42.501 42.501 0 0 0 143.4 57.85 Q 140.4 61.8 137.8 66 A 1155.207 1155.207 0 0 0 135.64 69.503 Q 134.654 71.109 133.774 72.554 A 676.735 676.735 0 0 0 133.2 73.5 Q 131.6 73.5 130.15 72.95 A 5.431 5.431 0 0 1 128.898 72.288 A 4.401 4.401 0 0 1 127.9 71.3 A 1.302 1.302 0 0 1 127.937 71.039 Q 128.097 70.313 128.95 68.2 A 159.879 159.879 0 0 0 129.787 66.081 Q 130.156 65.128 130.559 64.058 A 327.122 327.122 0 0 0 131.4 61.8 Q 132.8 58 133.9 54 A 33.742 33.742 0 0 0 134.652 50.634 Q 134.956 48.816 134.995 47.168 A 20.252 20.252 0 0 0 135 46.7 A 4.136 4.136 0 0 1 135.495 46.219 Q 136.043 45.763 136.887 45.307 A 13.096 13.096 0 0 1 136.9 45.3 A 5.691 5.691 0 0 1 139.122 44.621 A 5.515 5.515 0 0 1 139.6 44.6 A 4.051 4.051 0 0 1 140.652 44.724 Q 142.02 45.093 142.252 46.555 A 4.109 4.109 0 0 1 142.3 47.2 Q 142.3 48.773 141.43 52.426 A 78.551 78.551 0 0 1 141.4 52.55 A 82.123 82.123 0 0 1 140.08 57.374 A 97.759 97.759 0 0 1 139.1 60.4 A 92.214 92.214 0 0 1 144.323 53.263 A 102.333 102.333 0 0 1 145.15 52.25 A 40.271 40.271 0 0 1 149.513 47.715 A 33.722 33.722 0 0 1 152.3 45.5 A 16.272 16.272 0 0 1 155.38 43.755 A 11.532 11.532 0 0 1 159.9 42.8 A 8.504 8.504 0 0 1 162.128 43.073 A 5.632 5.632 0 0 1 165.55 45.6 Q 167.3 48.4 167.3 51.8 A 16.878 16.878 0 0 1 166.827 55.85 A 14.919 14.919 0 0 1 166.3 57.55 A 126.279 126.279 0 0 1 164.512 62.034 A 115.236 115.236 0 0 1 164.25 62.65 A 12.703 12.703 0 0 0 163.243 66.586 A 11.87 11.87 0 0 0 163.2 67.6 Q 163.2 69.408 163.83 70.289 A 2.069 2.069 0 0 0 164.05 70.55 A 2.871 2.871 0 0 0 165.997 71.395 A 3.82 3.82 0 0 0 166.2 71.4 A 5.866 5.866 0 0 0 168.778 70.775 Q 169.611 70.372 170.443 69.708 A 12.367 12.367 0 0 0 171.2 69.05 Q 173.622 66.773 175.903 63.324 A 45.221 45.221 0 0 0 176.05 63.1 Q 178.4 59.5 180.2 55.8 Z M 330.7 55.8 L 331.8 57.1 A 56.018 56.018 0 0 1 329.279 62.264 A 44.946 44.946 0 0 1 327.1 65.8 A 27.462 27.462 0 0 1 324.464 69.106 A 20.479 20.479 0 0 1 321.4 71.8 Q 318.3 74 314.5 74 Q 312.106 74 310.531 73.158 A 5.175 5.175 0 0 1 309.25 72.2 A 6.116 6.116 0 0 1 307.543 68.451 A 8.266 8.266 0 0 1 307.5 67.6 Q 307.5 65.5 308.25 63.2 Q 309 60.9 309.7 58.45 A 18.17 18.17 0 0 0 310.325 55.226 A 15.671 15.671 0 0 0 310.4 53.7 Q 310.4 50.9 309.25 49.85 A 3.986 3.986 0 0 0 306.765 48.813 A 5.228 5.228 0 0 0 306.4 48.8 A 8.365 8.365 0 0 0 303.078 49.52 Q 301.923 50.016 300.755 50.854 A 16.284 16.284 0 0 0 300.1 51.35 A 31.759 31.759 0 0 0 296.756 54.454 A 42.501 42.501 0 0 0 293.9 57.85 Q 290.9 61.8 288.3 66 A 1155.207 1155.207 0 0 0 286.14 69.503 Q 285.154 71.109 284.274 72.554 A 676.735 676.735 0 0 0 283.7 73.5 Q 282.1 73.5 280.65 72.95 A 5.431 5.431 0 0 1 279.398 72.288 A 4.401 4.401 0 0 1 278.4 71.3 A 1.302 1.302 0 0 1 278.437 71.039 Q 278.597 70.313 279.45 68.2 A 159.879 159.879 0 0 0 280.287 66.081 Q 280.656 65.128 281.059 64.058 A 327.122 327.122 0 0 0 281.9 61.8 Q 283.3 58 284.4 54 A 33.742 33.742 0 0 0 285.152 50.634 Q 285.456 48.816 285.495 47.168 A 20.252 20.252 0 0 0 285.5 46.7 A 4.136 4.136 0 0 1 285.995 46.219 Q 286.543 45.763 287.387 45.307 A 13.096 13.096 0 0 1 287.4 45.3 A 5.691 5.691 0 0 1 289.622 44.621 A 5.515 5.515 0 0 1 290.1 44.6 A 4.051 4.051 0 0 1 291.152 44.724 Q 292.52 45.093 292.752 46.555 A 4.109 4.109 0 0 1 292.8 47.2 Q 292.8 48.773 291.93 52.426 A 78.551 78.551 0 0 1 291.9 52.55 A 82.123 82.123 0 0 1 290.58 57.374 A 97.759 97.759 0 0 1 289.6 60.4 A 92.214 92.214 0 0 1 294.823 53.263 A 102.333 102.333 0 0 1 295.65 52.25 A 40.271 40.271 0 0 1 300.013 47.715 A 33.722 33.722 0 0 1 302.8 45.5 A 16.272 16.272 0 0 1 305.88 43.755 A 11.532 11.532 0 0 1 310.4 42.8 A 8.504 8.504 0 0 1 312.628 43.073 A 5.632 5.632 0 0 1 316.05 45.6 Q 317.8 48.4 317.8 51.8 A 16.878 16.878 0 0 1 317.327 55.85 A 14.919 14.919 0 0 1 316.8 57.55 A 126.279 126.279 0 0 1 315.012 62.034 A 115.236 115.236 0 0 1 314.75 62.65 A 12.703 12.703 0 0 0 313.743 66.586 A 11.87 11.87 0 0 0 313.7 67.6 Q 313.7 69.408 314.33 70.289 A 2.069 2.069 0 0 0 314.55 70.55 A 2.871 2.871 0 0 0 316.497 71.395 A 3.82 3.82 0 0 0 316.7 71.4 A 5.866 5.866 0 0 0 319.278 70.775 Q 320.111 70.372 320.943 69.708 A 12.367 12.367 0 0 0 321.7 69.05 Q 324.122 66.773 326.403 63.324 A 45.221 45.221 0 0 0 326.55 63.1 Q 328.9 59.5 330.7 55.8 Z M 509.5 55.8 L 510.6 57.1 A 56.018 56.018 0 0 1 508.079 62.264 A 44.946 44.946 0 0 1 505.9 65.8 A 27.462 27.462 0 0 1 503.264 69.106 A 20.479 20.479 0 0 1 500.2 71.8 Q 497.1 74 493.3 74 Q 490.906 74 489.331 73.158 A 5.175 5.175 0 0 1 488.05 72.2 A 6.116 6.116 0 0 1 486.343 68.451 A 8.266 8.266 0 0 1 486.3 67.6 Q 486.3 65.5 487.05 63.2 Q 487.8 60.9 488.5 58.45 A 18.17 18.17 0 0 0 489.125 55.226 A 15.671 15.671 0 0 0 489.2 53.7 Q 489.2 50.9 488.05 49.85 A 3.986 3.986 0 0 0 485.565 48.813 A 5.228 5.228 0 0 0 485.2 48.8 A 8.365 8.365 0 0 0 481.878 49.52 Q 480.723 50.016 479.555 50.854 A 16.284 16.284 0 0 0 478.9 51.35 A 31.759 31.759 0 0 0 475.556 54.454 A 42.501 42.501 0 0 0 472.7 57.85 Q 469.7 61.8 467.1 66 A 1155.207 1155.207 0 0 0 464.94 69.503 Q 463.954 71.109 463.074 72.554 A 676.735 676.735 0 0 0 462.5 73.5 Q 460.9 73.5 459.45 72.95 A 5.431 5.431 0 0 1 458.198 72.288 A 4.401 4.401 0 0 1 457.2 71.3 A 1.302 1.302 0 0 1 457.237 71.039 Q 457.397 70.313 458.25 68.2 A 159.879 159.879 0 0 0 459.087 66.081 Q 459.456 65.128 459.859 64.058 A 327.122 327.122 0 0 0 460.7 61.8 Q 462.1 58 463.2 54 A 33.742 33.742 0 0 0 463.952 50.634 Q 464.256 48.816 464.295 47.168 A 20.252 20.252 0 0 0 464.3 46.7 A 4.136 4.136 0 0 1 464.795 46.219 Q 465.343 45.763 466.187 45.307 A 13.096 13.096 0 0 1 466.2 45.3 A 5.691 5.691 0 0 1 468.422 44.621 A 5.515 5.515 0 0 1 468.9 44.6 A 4.051 4.051 0 0 1 469.952 44.724 Q 471.32 45.093 471.552 46.555 A 4.109 4.109 0 0 1 471.6 47.2 Q 471.6 48.773 470.73 52.426 A 78.551 78.551 0 0 1 470.7 52.55 A 82.123 82.123 0 0 1 469.38 57.374 A 97.759 97.759 0 0 1 468.4 60.4 A 92.214 92.214 0 0 1 473.623 53.263 A 102.333 102.333 0 0 1 474.45 52.25 A 40.271 40.271 0 0 1 478.813 47.715 A 33.722 33.722 0 0 1 481.6 45.5 A 16.272 16.272 0 0 1 484.68 43.755 A 11.532 11.532 0 0 1 489.2 42.8 A 8.504 8.504 0 0 1 491.428 43.073 A 5.632 5.632 0 0 1 494.85 45.6 Q 496.6 48.4 496.6 51.8 A 16.878 16.878 0 0 1 496.127 55.85 A 14.919 14.919 0 0 1 495.6 57.55 A 126.279 126.279 0 0 1 493.812 62.034 A 115.236 115.236 0 0 1 493.55 62.65 A 12.703 12.703 0 0 0 492.543 66.586 A 11.87 11.87 0 0 0 492.5 67.6 Q 492.5 69.408 493.13 70.289 A 2.069 2.069 0 0 0 493.35 70.55 A 2.871 2.871 0 0 0 495.297 71.395 A 3.82 3.82 0 0 0 495.5 71.4 A 5.866 5.866 0 0 0 498.078 70.775 Q 498.911 70.372 499.743 69.708 A 12.367 12.367 0 0 0 500.5 69.05 Q 502.922 66.773 505.203 63.324 A 45.221 45.221 0 0 0 505.35 63.1 Q 507.7 59.5 509.5 55.8 Z M 25.3 55.8 L 26.8 56.6 A 68.426 68.426 0 0 1 23.568 62.699 Q 20.964 67.034 18.1 70.05 Q 14.095 74.268 9.582 74.892 A 11.54 11.54 0 0 1 8 75 A 9.816 9.816 0 0 1 5.663 74.74 A 5.995 5.995 0 0 1 1.85 72.05 Q 0.077 69.223 0.003 65.065 A 20.503 20.503 0 0 1 0 64.7 Q 0 61.072 1.028 56.415 A 65.721 65.721 0 0 1 1.8 53.3 Q 3.6 46.7 6.55 39.4 Q 9.5 32.1 13 25.15 Q 16.5 18.2 20 12.5 A 100.995 100.995 0 0 1 22.445 8.7 Q 24.56 5.578 26.45 3.4 A 24.453 24.453 0 0 1 27.67 2.086 Q 29.769 0 31.1 0 A 1.771 1.771 0 0 1 32.398 0.564 Q 32.635 0.804 32.84 1.146 A 4.111 4.111 0 0 1 32.9 1.25 Q 33.556 2.422 33.949 4.033 A 15.61 15.61 0 0 1 34 4.25 Q 34.358 5.815 34.396 7.101 A 10.197 10.197 0 0 1 34.4 7.4 A 14.488 14.488 0 0 1 34.255 9.35 Q 33.977 11.383 33.168 14.065 A 50.358 50.358 0 0 1 33.05 14.45 A 65.881 65.881 0 0 1 31.658 18.448 Q 30.628 21.141 29.25 24.15 A 97.709 97.709 0 0 1 25.069 32.231 A 110.916 110.916 0 0 1 23.45 34.95 Q 20.1 40.4 16.15 45.4 A 58.862 58.862 0 0 1 10.772 51.36 A 49.717 49.717 0 0 1 7.8 54 A 66.011 66.011 0 0 0 6.965 58.449 A 59.276 59.276 0 0 0 6.85 59.25 A 37.76 37.76 0 0 0 6.538 62.564 A 31.905 31.905 0 0 0 6.5 64.1 A 22.133 22.133 0 0 0 6.587 66.136 Q 6.776 68.178 7.378 69.472 A 5.389 5.389 0 0 0 7.6 69.9 A 3.975 3.975 0 0 0 8.6 71.074 Q 9.54 71.8 10.9 71.8 Q 13.332 71.8 15.724 69.852 A 13.216 13.216 0 0 0 16.25 69.4 A 26.199 26.199 0 0 0 18.981 66.497 A 35.163 35.163 0 0 0 21.25 63.35 Q 23.6 59.7 25.3 55.8 Z M 284.1 56.1 L 285.3 57.1 A 16.442 16.442 0 0 1 283.527 60.295 A 11.378 11.378 0 0 1 279.65 63.75 Q 276 65.7 272.7 65.7 A 12.295 12.295 0 0 1 270.35 65.48 A 11.377 11.377 0 0 1 270.2 65.45 Q 269 65.2 267.9 64.7 Q 264.5 69.2 260.45 72.2 A 18.281 18.281 0 0 1 257.602 73.954 Q 255.852 74.808 254.151 75.077 A 9.929 9.929 0 0 1 252.6 75.2 Q 249.803 75.2 248.064 74.079 A 5.429 5.429 0 0 1 246.5 72.55 A 10.256 10.256 0 0 1 244.903 68.523 A 13.884 13.884 0 0 1 244.7 66.1 A 21.093 21.093 0 0 1 245.239 61.439 A 25.06 25.06 0 0 1 245.7 59.7 Q 246.7 56.4 248.35 53.5 A 21.34 21.34 0 0 1 249.985 51.023 A 15.684 15.684 0 0 1 252.05 48.8 A 8.699 8.699 0 0 1 253.465 47.775 Q 254.419 47.23 255.384 47.068 A 4.926 4.926 0 0 1 256.2 47 A 3.729 3.729 0 0 1 256.878 47.065 A 4.572 4.572 0 0 1 257.25 47.15 A 9.742 9.742 0 0 1 258.237 47.475 A 8.973 8.973 0 0 1 258.3 47.5 Q 257.564 48.154 256.595 49.71 A 28.267 28.267 0 0 0 256.15 50.45 A 33.287 33.287 0 0 0 254.8 53.039 A 43.267 43.267 0 0 0 253.8 55.35 A 52.685 52.685 0 0 0 251.997 60.631 A 48.638 48.638 0 0 0 251.95 60.8 A 25.492 25.492 0 0 0 251.508 62.637 Q 251.335 63.507 251.259 64.272 A 11.477 11.477 0 0 0 251.2 65.4 Q 251.2 68.026 251.966 69.388 A 3.449 3.449 0 0 0 252.2 69.75 Q 253.2 71.1 254.8 71.1 Q 256.716 71.1 259.299 69.226 A 19.47 19.47 0 0 0 259.8 68.85 A 29.963 29.963 0 0 0 262.853 66.107 A 40.525 40.525 0 0 0 265.5 63.1 A 14.503 14.503 0 0 1 261.945 58.728 A 17.942 17.942 0 0 1 261.15 57.05 Q 259.6 53.3 259.6 49.4 Q 259.6 46.1 260.75 43.2 A 11.86 11.86 0 0 1 262.374 40.304 A 10.183 10.183 0 0 1 264.1 38.55 A 8.031 8.031 0 0 1 268.523 36.837 A 10.336 10.336 0 0 1 269.4 36.8 A 11.903 11.903 0 0 1 271.281 36.938 Q 273.85 37.35 274.9 39 A 8.597 8.597 0 0 1 276.022 41.779 Q 276.274 42.913 276.298 44.226 A 15.237 15.237 0 0 1 276.3 44.5 A 18.954 18.954 0 0 1 275.883 48.343 Q 275.513 50.127 274.816 52.057 A 34.344 34.344 0 0 1 274.4 53.15 Q 272.5 57.9 269.6 62.3 Q 271.4 63.3 273.4 63.3 A 9.435 9.435 0 0 0 274.96 63.162 Q 275.681 63.041 276.468 62.813 A 16.91 16.91 0 0 0 277 62.65 A 10.905 10.905 0 0 0 279.296 61.581 A 14.477 14.477 0 0 0 280.95 60.4 A 10.529 10.529 0 0 0 283.164 57.862 A 13.687 13.687 0 0 0 284.1 56.1 Z M 109.5 56.2 L 110.8 57.2 A 27.374 27.374 0 0 1 109.527 59.751 Q 108.076 62.291 106.45 63.547 A 7.012 7.012 0 0 1 105.95 63.9 Q 103.74 65.318 101.704 65.553 A 6.995 6.995 0 0 1 100.9 65.6 A 7.426 7.426 0 0 1 97.704 64.923 A 7.365 7.365 0 0 1 95.4 63.2 Q 93.771 61.423 92.965 58.277 A 22.265 22.265 0 0 1 92.5 55.9 Q 90.1 60.8 86.85 65.35 Q 83.6 69.9 80.1 72.9 A 16.356 16.356 0 0 1 77.942 74.482 Q 75.6 75.9 73.4 75.9 A 4.822 4.822 0 0 1 71.532 75.556 Q 70.318 75.051 69.567 73.805 A 6.333 6.333 0 0 1 69.1 72.85 Q 67.9 69.8 67.9 64.9 A 4.87 4.87 0 0 1 67.902 64.807 Q 67.912 64.331 68 61.75 A 171.509 171.509 0 0 1 68.069 60.022 Q 68.2 57.05 68.5 51.8 Q 68.7 49.1 69.1 48.1 A 1.249 1.249 0 0 1 69.687 47.471 Q 70.18 47.199 71.033 47.126 A 7.888 7.888 0 0 1 71.7 47.1 A 6.928 6.928 0 0 1 72.384 47.131 Q 73.082 47.201 73.481 47.426 A 1.09 1.09 0 0 1 73.85 47.75 Q 74.3 48.4 74.3 50.3 A 58.523 58.523 0 0 1 74.237 52.937 Q 74.171 54.394 74.036 56.027 A 109.576 109.576 0 0 1 73.85 58.05 A 90.054 90.054 0 0 0 73.466 63.333 A 73.269 73.269 0 0 0 73.4 66.4 Q 73.4 69.3 73.9 70.65 A 2.584 2.584 0 0 0 74.243 71.301 Q 74.755 71.988 75.667 72 A 2.476 2.476 0 0 0 75.7 72 A 3.858 3.858 0 0 0 77.152 71.693 Q 78.351 71.207 79.7 69.95 A 25.112 25.112 0 0 0 81.609 67.948 Q 82.529 66.879 83.465 65.591 A 47.252 47.252 0 0 0 84.2 64.55 A 77.857 77.857 0 0 0 88.293 57.873 A 85.461 85.461 0 0 0 88.55 57.4 A 132.334 132.334 0 0 0 90.937 52.767 A 111.278 111.278 0 0 0 92.2 50.1 A 62.339 62.339 0 0 1 92.338 47.343 Q 92.647 43.159 93.503 41.339 A 4.784 4.784 0 0 1 93.65 41.05 Q 94.405 39.691 95.398 39.153 A 2.896 2.896 0 0 1 96.8 38.8 A 4.184 4.184 0 0 1 97.882 38.931 A 2.735 2.735 0 0 1 99.55 40.15 Q 100.141 41.089 100.321 41.907 A 3.222 3.222 0 0 1 100.4 42.6 Q 100.4 43.855 99.608 45.203 A 7.821 7.821 0 0 1 99.55 45.3 Q 98.7 46.7 97.8 49.1 Q 96.987 51.268 96.908 55.15 A 42.024 42.024 0 0 0 96.9 56 A 19.243 19.243 0 0 0 97.017 58.078 A 23.471 23.471 0 0 0 97.2 59.4 A 7.123 7.123 0 0 0 97.635 60.956 A 5.556 5.556 0 0 0 98.5 62.4 Q 99.395 63.473 101.169 63.587 A 6.768 6.768 0 0 0 101.6 63.6 A 5.593 5.593 0 0 0 104.292 62.889 A 8.016 8.016 0 0 0 105.65 61.95 A 9.145 9.145 0 0 0 106.864 60.679 Q 108.007 59.252 109.132 56.97 A 35.355 35.355 0 0 0 109.5 56.2 Z M 403.1 61 L 402.2 59.3 Q 403.6 56.7 405.85 51.7 Q 408.1 46.7 410.3 40.3 A 3.27 3.27 0 0 1 409.3 37.944 A 3.89 3.89 0 0 1 409.3 37.9 A 8.649 8.649 0 0 1 409.57 35.684 A 6.425 6.425 0 0 1 411 33 A 16.95 16.95 0 0 1 411.653 32.307 Q 412.611 31.351 413.211 31.152 A 0.926 0.926 0 0 1 413.5 31.1 A 1.888 1.888 0 0 1 413.963 31.152 Q 414.567 31.305 414.721 31.908 A 1.55 1.55 0 0 1 414.75 32.05 Q 414.873 32.83 414.895 33.306 A 4.206 4.206 0 0 1 414.9 33.5 A 1.615 1.615 0 0 1 414.874 33.764 Q 414.796 34.224 414.485 35.085 A 23.542 23.542 0 0 1 414.35 35.45 A 35.513 35.513 0 0 0 414.163 35.953 Q 413.818 36.905 413.801 37.173 A 0.412 0.412 0 0 0 413.8 37.2 Q 413.8 38.6 415.35 39.75 Q 416.682 40.738 418.346 41.948 A 548.033 548.033 0 0 0 418.9 42.35 Q 420.9 43.8 422.45 45.85 A 7.414 7.414 0 0 1 423.754 48.733 Q 423.992 49.791 424 51.02 A 13.119 13.119 0 0 1 424 51.1 A 14.386 14.386 0 0 1 424 51.147 Q 423.99 54.124 422.75 57.2 Q 421.5 60.3 420.25 63.1 A 18.056 18.056 0 0 0 419.538 64.942 Q 419 66.622 419 68 Q 419 69.64 419.747 70.284 A 1.557 1.557 0 0 0 419.9 70.4 A 3.579 3.579 0 0 0 421.578 70.981 A 4.5 4.5 0 0 0 422 71 A 8.545 8.545 0 0 0 424.825 70.499 A 11.989 11.989 0 0 0 426.95 69.5 A 25.453 25.453 0 0 0 430.385 67.059 A 30.495 30.495 0 0 0 431.9 65.7 Q 434.3 63.4 436.2 60.85 Q 437.783 58.726 438.672 56.845 A 15.348 15.348 0 0 0 439 56.1 L 440.3 57.1 A 35.465 35.465 0 0 1 437.115 62.676 A 43.092 43.092 0 0 1 435.1 65.35 A 32.321 32.321 0 0 1 429.788 70.563 A 28.946 28.946 0 0 1 427.75 72 A 16.861 16.861 0 0 1 423.507 73.99 A 14.161 14.161 0 0 1 419.4 74.6 A 10.386 10.386 0 0 1 417.234 74.387 Q 415.821 74.086 414.751 73.358 A 6.075 6.075 0 0 1 414.05 72.8 A 5.973 5.973 0 0 1 412.12 68.678 A 8.153 8.153 0 0 1 412.1 68.1 A 14.471 14.471 0 0 1 412.594 64.432 A 19.162 19.162 0 0 1 413.5 61.8 Q 414.9 58.5 416.25 55.25 A 20.755 20.755 0 0 0 417.073 52.904 Q 417.6 51.025 417.6 49.4 Q 417.6 46.2 415.75 44.65 Q 413.9 43.1 412 41.8 Q 409.7 47.7 407.2 53 A 194.074 194.074 0 0 1 406.006 55.488 Q 404.7 58.158 403.69 59.97 A 44.419 44.419 0 0 1 403.1 61 Z M 566.5 40.5 L 566.5 39.3 Q 566.5 36.231 567.36 34.641 A 3.878 3.878 0 0 1 567.75 34.05 Q 568.53 33.083 569.368 32.719 A 2.569 2.569 0 0 1 570.4 32.5 A 2.55 2.55 0 0 1 570.85 32.537 Q 571.322 32.622 571.6 32.9 A 1.474 1.474 0 0 1 571.859 33.242 A 1.16 1.16 0 0 1 572 33.8 A 2.542 2.542 0 0 1 571.981 34.088 Q 571.925 34.575 571.7 35.4 A 7.414 7.414 0 0 0 571.517 36.309 Q 571.4 37.138 571.4 38.2 A 19.398 19.398 0 0 0 571.767 41.861 A 26.656 26.656 0 0 0 572.7 45.35 Q 574 49.2 575.3 53.45 Q 576.6 57.7 576.6 62.3 Q 576.6 63.6 576.45 64.85 A 17.018 17.018 0 0 1 576.157 66.569 A 14.686 14.686 0 0 1 576 67.2 Q 579.5 66.6 582.6 64.05 A 16.612 16.612 0 0 0 584.802 61.823 Q 585.772 60.655 586.722 59.175 A 41.041 41.041 0 0 0 588.6 55.9 L 589.5 56.9 A 21.097 21.097 0 0 1 587.643 60.931 A 15.032 15.032 0 0 1 583.8 65.25 Q 580 68.1 575.5 68.8 Q 573.9 73.1 570.45 75.1 A 14.954 14.954 0 0 1 563.565 77.079 A 17.956 17.956 0 0 1 562.7 77.1 A 17.447 17.447 0 0 1 559.703 76.858 Q 557.056 76.396 555.25 75.05 A 11.703 11.703 0 0 1 552.356 71.992 A 10.882 10.882 0 0 1 551.35 70 A 17.031 17.031 0 0 1 550.255 65.313 A 15.7 15.7 0 0 1 550.2 64 Q 550.2 61 551 59.4 A 7.922 7.922 0 0 1 551.708 58.232 Q 552.175 57.599 552.729 57.163 A 4.671 4.671 0 0 1 552.95 57 Q 554.062 56.227 555.08 55.827 A 7.542 7.542 0 0 1 555.15 55.8 Q 556.2 55.4 556.6 55 Q 559.6 51.7 562.1 48.1 Q 564.6 44.5 566.5 40.5 Z M 133.6 55.8 L 134.5 56.8 Q 131.873 64.592 127.152 69.1 A 21.944 21.944 0 0 1 126.15 70 A 21.835 21.835 0 0 1 121.824 72.892 A 15.582 15.582 0 0 1 114.8 74.6 Q 111.654 74.6 109.81 73.006 A 5.932 5.932 0 0 1 109 72.15 A 9.016 9.016 0 0 1 107.181 67.604 A 11.798 11.798 0 0 1 107.1 66.2 Q 107.1 64.655 107.484 62.568 A 39.423 39.423 0 0 1 107.95 60.4 A 64.863 64.863 0 0 1 109.227 55.888 A 78.669 78.669 0 0 1 110.2 53.05 A 53.414 53.414 0 0 1 113.221 46.227 A 49.306 49.306 0 0 1 113.45 45.8 A 31.029 31.029 0 0 1 115.117 43.064 Q 116.012 41.76 116.96 40.717 A 17.836 17.836 0 0 1 117.4 40.25 Q 118.701 38.918 119.964 38.411 A 4.102 4.102 0 0 1 121.5 38.1 A 2.459 2.459 0 0 1 122.41 38.264 A 2.282 2.282 0 0 1 123.05 38.65 A 1.752 1.752 0 0 1 123.608 39.551 Q 123.7 39.887 123.7 40.3 Q 123.7 41.413 122.367 43.816 A 30.151 30.151 0 0 1 122.15 44.2 Q 120.818 46.52 119.08 49.431 A 527.778 527.778 0 0 1 118.5 50.4 Q 116.4 53.9 114.85 57.75 Q 113.3 61.6 113.3 65.1 A 16.948 16.948 0 0 0 113.366 66.656 Q 113.581 68.981 114.5 69.9 A 3.696 3.696 0 0 0 115.911 70.761 Q 116.496 70.968 117.218 71.048 A 8.857 8.857 0 0 0 118.2 71.1 A 7.976 7.976 0 0 0 121.247 70.455 Q 122.421 69.972 123.642 69.126 A 19.563 19.563 0 0 0 125.45 67.7 A 20.815 20.815 0 0 0 127.869 65.116 Q 130.627 61.677 133.6 55.8 Z M 462.9 55.8 L 463.8 56.8 Q 461.173 64.592 456.452 69.1 A 21.944 21.944 0 0 1 455.45 70 A 21.835 21.835 0 0 1 451.124 72.892 A 15.582 15.582 0 0 1 444.1 74.6 Q 440.954 74.6 439.11 73.006 A 5.932 5.932 0 0 1 438.3 72.15 A 9.016 9.016 0 0 1 436.481 67.604 A 11.798 11.798 0 0 1 436.4 66.2 Q 436.4 64.655 436.784 62.568 A 39.423 39.423 0 0 1 437.25 60.4 A 64.863 64.863 0 0 1 438.527 55.888 A 78.669 78.669 0 0 1 439.5 53.05 A 53.414 53.414 0 0 1 442.521 46.227 A 49.306 49.306 0 0 1 442.75 45.8 A 31.029 31.029 0 0 1 444.417 43.064 Q 445.312 41.76 446.26 40.717 A 17.836 17.836 0 0 1 446.7 40.25 Q 448.001 38.918 449.264 38.411 A 4.102 4.102 0 0 1 450.8 38.1 A 2.459 2.459 0 0 1 451.71 38.264 A 2.282 2.282 0 0 1 452.35 38.65 A 1.752 1.752 0 0 1 452.908 39.551 Q 453 39.887 453 40.3 Q 453 41.413 451.667 43.816 A 30.151 30.151 0 0 1 451.45 44.2 Q 450.118 46.52 448.38 49.431 A 527.778 527.778 0 0 1 447.8 50.4 Q 445.7 53.9 444.15 57.75 Q 442.6 61.6 442.6 65.1 A 16.948 16.948 0 0 0 442.666 66.656 Q 442.881 68.981 443.8 69.9 A 3.696 3.696 0 0 0 445.211 70.761 Q 445.796 70.968 446.518 71.048 A 8.857 8.857 0 0 0 447.5 71.1 A 7.976 7.976 0 0 0 450.547 70.455 Q 451.721 69.972 452.942 69.126 A 19.563 19.563 0 0 0 454.75 67.7 A 20.815 20.815 0 0 0 457.169 65.116 Q 459.927 61.677 462.9 55.8 Z M 8.7 50.6 A 62.647 62.647 0 0 0 13.208 45.554 A 75.912 75.912 0 0 0 15.5 42.55 Q 18.8 38 21.65 33.1 Q 24.5 28.2 26.7 23.6 Q 28.9 19 30.1 15.35 Q 31.098 12.315 31.266 10.421 A 8.177 8.177 0 0 0 31.3 9.7 A 6.299 6.299 0 0 0 31.288 9.296 Q 31.249 8.69 31.082 8.443 A 0.526 0.526 0 0 0 31.05 8.4 A 1.556 1.556 0 0 0 30.936 8.276 Q 30.808 8.153 30.694 8.116 A 0.304 0.304 0 0 0 30.6 8.1 A 0.927 0.927 0 0 0 30.164 8.239 Q 29.345 8.695 27.85 10.65 A 49.537 49.537 0 0 0 26.433 12.61 Q 25.006 14.678 23.3 17.5 Q 20.7 21.8 18 27.3 A 183.076 183.076 0 0 0 13.003 38.425 A 199.301 199.301 0 0 0 12.85 38.8 A 123.762 123.762 0 0 0 9.165 49.056 A 111.599 111.599 0 0 0 8.7 50.6 Z M 522.7 33.9 Q 527.3 30.2 530.75 25.5 Q 534.2 20.8 536.1 16.45 A 36.86 36.86 0 0 0 536.931 14.391 Q 538 11.475 538 9.6 Q 538 9.1 537.95 8.9 A 0.328 0.328 0 0 0 537.913 8.808 Q 537.856 8.716 537.741 8.702 A 0.356 0.356 0 0 0 537.7 8.7 Q 536.726 8.7 534.378 12.018 A 43.057 43.057 0 0 0 534.25 12.2 Q 532.604 14.552 530.664 17.919 A 144.091 144.091 0 0 0 528.7 21.45 A 152.916 152.916 0 0 0 524.532 29.805 A 180.578 180.578 0 0 0 522.7 33.9 Z M 569.7 67.1 A 19.451 19.451 0 0 0 569.959 65.409 A 21.948 21.948 0 0 0 570 65 A 21.766 21.766 0 0 0 570.061 64.119 Q 570.085 63.63 570.095 63.081 A 40.906 40.906 0 0 0 570.1 62.4 Q 570.1 57.7 568.95 53.05 Q 567.8 48.4 567 44.3 Q 564.7 48.1 562.15 51.55 Q 560.098 54.326 558.208 56.358 A 36.317 36.317 0 0 1 557.3 57.3 A 16.847 16.847 0 0 0 559.663 60.959 A 22.249 22.249 0 0 0 561.95 63.3 Q 565.1 66.1 569.7 67.1 Z M 181.8 96.8 A 2.973 2.973 0 0 0 183.021 96.496 Q 184.757 95.704 187.25 92.85 Q 190.107 89.579 193.341 82.435 A 113.16 113.16 0 0 0 194.7 79.3 A 94.634 94.634 0 0 0 189.065 82.351 A 82.001 82.001 0 0 0 187.25 83.45 A 32.225 32.225 0 0 0 184.29 85.521 Q 182.864 86.65 181.747 87.841 A 19.642 19.642 0 0 0 181.6 88 A 8.876 8.876 0 0 0 180.106 90.175 A 7.18 7.18 0 0 0 179.4 93.3 A 5.949 5.949 0 0 0 179.483 94.323 Q 179.641 95.227 180.1 95.85 A 2.748 2.748 0 0 0 180.592 96.371 A 1.885 1.885 0 0 0 181.8 96.8 Z M 267.3 60.5 Q 269.8 56.8 271.45 52.75 A 23.947 23.947 0 0 0 272.634 49.052 A 17.735 17.735 0 0 0 273.1 45.1 Q 273.1 42.555 272.445 41.203 A 3.65 3.65 0 0 0 272.25 40.85 A 3.631 3.631 0 0 0 271.706 40.167 A 2.242 2.242 0 0 0 270.1 39.5 Q 268.1 39.5 266 42.4 A 10.731 10.731 0 0 0 264.22 46.491 A 15.248 15.248 0 0 0 263.9 49.7 A 20.988 20.988 0 0 0 264.698 55.366 A 23.378 23.378 0 0 0 264.75 55.55 Q 265.6 58.5 267.3 60.5 Z M 565.721 72.947 A 19.399 19.399 0 0 0 566.1 72.8 A 4.024 4.024 0 0 0 567.653 71.651 Q 568.559 70.598 569.181 68.757 A 14.585 14.585 0 0 0 569.2 68.7 Q 565 67.9 561.75 65.4 A 27.871 27.871 0 0 1 559.545 63.525 Q 558.517 62.548 557.741 61.572 A 14.125 14.125 0 0 1 556.9 60.4 Q 554.745 60.498 554.701 63.762 A 10.2 10.2 0 0 0 554.7 63.9 Q 554.7 67.5 556.85 70.55 A 6.832 6.832 0 0 0 561.781 73.533 A 9.065 9.065 0 0 0 562.9 73.6 Q 563.984 73.6 565.721 72.947 Z M 124.991 28.507 A 5.454 5.454 0 0 0 126.8 28.8 A 6.275 6.275 0 0 0 129.338 28.269 A 7.696 7.696 0 0 0 131.25 27.05 Q 132.243 26.202 132.755 25.319 A 3.784 3.784 0 0 0 133.3 23.4 A 5.35 5.35 0 0 0 133.262 22.741 Q 133.114 21.556 132.4 21 A 2.889 2.889 0 0 0 132.013 20.746 Q 131.198 20.3 130 20.3 Q 127.6 20.3 125.15 21.85 Q 124.155 22.48 123.564 23.2 A 3.549 3.549 0 0 0 122.7 25.5 A 4.027 4.027 0 0 0 122.74 26.082 A 2.614 2.614 0 0 0 123.95 28 A 4.951 4.951 0 0 0 124.991 28.507 Z M 454.291 28.507 A 5.454 5.454 0 0 0 456.1 28.8 A 6.275 6.275 0 0 0 458.638 28.269 A 7.696 7.696 0 0 0 460.55 27.05 Q 461.543 26.202 462.055 25.319 A 3.784 3.784 0 0 0 462.6 23.4 A 5.35 5.35 0 0 0 462.562 22.741 Q 462.414 21.556 461.7 21 A 2.889 2.889 0 0 0 461.313 20.746 Q 460.498 20.3 459.3 20.3 Q 456.9 20.3 454.45 21.85 Q 453.455 22.48 452.864 23.2 A 3.549 3.549 0 0 0 452 25.5 A 4.027 4.027 0 0 0 452.04 26.082 A 2.614 2.614 0 0 0 453.25 28 A 4.951 4.951 0 0 0 454.291 28.507 Z" vector-effect="non-scaling-stroke"/></g></svg>
